
<?xml version="1.0" encoding="UTF-8" standalone="no"?>
<svg width="24" height="24" viewBox="0 0 24 24" fill="currentColor">
  <path
     fill-rule="evenodd"
     clip-rule="evenodd"
     d="m 11.989101,0.04160229 c 0.127189,0 0.249198,0.07012536 0.339122,0.19494132 l 3.357176,4.65905699 c 0.187282,0.2599085 0.187282,0.6813529 0,0.9412613 -0.187283,0.2599084 -0.490963,0.2599084 -0.678245,0 L 12.468697,2.3140275 v 9.0424105 c 0,0.367599 -0.214715,0.665579 -0.479596,0.665579 -0.264882,0 -0.479597,-0.29798 -0.479597,-0.665579 V 2.3140275 L 8.9710523,5.8368619 c -0.1872969,0.2599084 -0.4909582,0.2599084 -0.678255,0 -0.1872921,-0.2599084 -0.1872921,-0.6813528 0,-0.9412613 L 11.649978,0.23654361 c 0.08992,-0.12481596 0.211934,-0.19494132 0.339123,-0.19494132 z"
     id="path2"
     style="stroke-width:0.999998" />
</svg>
