<?xml version="1.0" encoding="UTF-8" standalone="no"?>
<svg
   xmlns:dc="http://purl.org/dc/elements/1.1/"
   xmlns:cc="http://creativecommons.org/ns#"
   xmlns:rdf="http://www.w3.org/1999/02/22-rdf-syntax-ns#"
   xmlns:svg="http://www.w3.org/2000/svg"
   xmlns="http://www.w3.org/2000/svg"
   xmlns:sodipodi="http://sodipodi.sourceforge.net/DTD/sodipodi-0.dtd"
   xmlns:inkscape="http://www.inkscape.org/namespaces/inkscape"
   width="800px"
   height="800px"
   viewBox="0 0 24 24"
   fill="none"
   version="1.1"
   id="svg4"
   sodipodi:docname="my_up_arrow.svg"
   inkscape:version="1.0.2 (e86c870879, 2021-01-15)">
  <metadata
     id="metadata10">
    <rdf:RDF>
      <cc:Work
         rdf:about="">
        <dc:format>image/svg+xml</dc:format>
        <dc:type
           rdf:resource="http://purl.org/dc/dcmitype/StillImage" />
        <dc:title></dc:title>
      </cc:Work>
    </rdf:RDF>
  </metadata>
  <defs
     id="defs8" />
  <sodipodi:namedview
     pagecolor="#ffffff"
     bordercolor="#666666"
     borderopacity="1"
     objecttolerance="10"
     gridtolerance="10"
     guidetolerance="10"
     inkscape:pageopacity="0"
     inkscape:pageshadow="2"
     inkscape:window-width="1920"
     inkscape:window-height="1043"
     id="namedview6"
     showgrid="false"
     inkscape:zoom="1.01125"
     inkscape:cx="400"
     inkscape:cy="400"
     inkscape:window-x="0"
     inkscape:window-y="0"
     inkscape:window-maximized="1"
     inkscape:current-layer="svg4" />
  <path
     fill-rule="evenodd"
     clip-rule="evenodd"
     d="m 11.989101,0.04160229 c 0.127189,0 0.249198,0.07012536 0.339122,0.19494132 l 3.357176,4.65905699 c 0.187282,0.2599085 0.187282,0.6813529 0,0.9412613 -0.187283,0.2599084 -0.490963,0.2599084 -0.678245,0 L 12.468697,2.3140275 v 9.0424105 c 0,0.367599 -0.214715,0.665579 -0.479596,0.665579 -0.264882,0 -0.479597,-0.29798 -0.479597,-0.665579 V 2.3140275 L 8.9710523,5.8368619 c -0.1872969,0.2599084 -0.4909582,0.2599084 -0.678255,0 -0.1872921,-0.2599084 -0.1872921,-0.6813528 0,-0.9412613 L 11.649978,0.23654361 c 0.08992,-0.12481596 0.211934,-0.19494132 0.339123,-0.19494132 z"
     fill="#000000"
     id="path2"
     style="stroke-width:0.999998" />
</svg>
